<svg width="24" height="25" viewBox="0 0 24 25" fill="none" xmlns="http://www.w3.org/2000/svg">
<path d="M12 4.125C12.7435 4.12497 13.458 4.41296 13.9937 4.92851C14.5294 5.44405 14.8446 6.14707 14.873 6.89L14.875 7H18.5C18.6599 7.00052 18.8135 7.06227 18.9292 7.17256C19.0449 7.28285 19.114 7.4333 19.1222 7.59295C19.1304 7.7526 19.0771 7.90933 18.9732 8.03089C18.8694 8.15245 18.723 8.22961 18.564 8.2465L18.5 8.25H17.9545L17.103 19.535C17.0627 20.0694 16.8219 20.5688 16.4289 20.9332C16.036 21.2975 15.5199 21.5 14.984 21.5H9.016C8.48011 21.5 7.964 21.2975 7.57105 20.9332C7.17811 20.5688 6.93735 20.0694 6.897 19.535L6.045 8.25H5.5C5.34527 8.25007 5.19602 8.19274 5.08112 8.08911C4.96622 7.98548 4.89384 7.84292 4.878 7.689L4.875 7.625C4.875 7.3015 5.121 7.035 5.436 7.0035L5.5 7H9.125C9.125 6.2375 9.4279 5.50624 9.96707 4.96707C10.5062 4.4279 11.2375 4.125 12 4.125V4.125ZM16.701 8.25H7.299L8.144 19.441C8.16064 19.6609 8.25971 19.8665 8.42139 20.0165C8.58308 20.1665 8.79545 20.2499 9.016 20.25H14.984C15.2046 20.25 15.4171 20.1666 15.5789 20.0166C15.7407 19.8666 15.8399 19.661 15.8565 19.441L16.7015 8.25H16.701ZM13.625 10.875C13.9485 10.875 14.215 11.121 14.247 11.436L14.25 11.5V17C14.2507 17.1607 14.1896 17.3155 14.0791 17.4323C13.9687 17.5491 13.8175 17.6188 13.657 17.6271C13.4965 17.6353 13.339 17.5814 13.2172 17.4766C13.0954 17.3717 13.0187 17.2239 13.003 17.064L13 17V11.5C13 11.155 13.28 10.875 13.625 10.875ZM10.375 10.875C10.6985 10.875 10.965 11.121 10.997 11.436L11 11.5V17C11.0007 17.1607 10.9396 17.3155 10.8291 17.4323C10.7187 17.5491 10.5675 17.6188 10.407 17.6271C10.2465 17.6353 10.089 17.5814 9.96723 17.4766C9.84543 17.3717 9.76871 17.2239 9.753 17.064L9.75 17V11.5C9.75 11.155 10.03 10.875 10.375 10.875ZM12 5.375C11.5849 5.37497 11.1856 5.53378 10.8839 5.81884C10.5822 6.10389 10.401 6.4936 10.3775 6.908L10.375 7H13.625C13.625 6.56902 13.4538 6.1557 13.149 5.85095C12.8443 5.54621 12.431 5.375 12 5.375V5.375Z" fill="black"/>
</svg>
